# Blender 3.6.5
# www.blender.org
mtllib SWAMP_SKY.mtl
o CIELO
v -15.061432 -6.000000 15.061432
v -15.061432 20.000000 15.061432
v -15.061432 -6.000000 -15.061432
v -15.061432 20.000000 -15.061432
v 15.061432 -6.000000 15.061432
v 15.061432 20.000000 15.061432
v 15.061432 -6.000000 -15.061432
v 15.061432 20.000000 -15.061432
vn 1.0000 -0.0000 -0.0000
vn -0.0000 -0.0000 1.0000
vn -1.0000 -0.0000 -0.0000
vn -0.0000 -0.0000 -1.0000
vn -0.0000 -1.0000 -0.0000
vt 0.000000 -0.017879
vt 1.000000 -0.017879
vt 1.000000 0.845253
vt 0.000000 0.845253
vt 0.628292 0.815312
vt 0.628292 0.735904
vt 0.548884 0.735904
vt 0.548884 0.815312
s 0
usemtl Material.003
f 1/1/1 3/2/1 4/3/1 2/4/1
f 3/1/2 7/2/2 8/3/2 4/4/2
f 7/2/3 5/1/3 6/4/3 8/3/3
f 5/2/4 1/1/4 2/4/4 6/3/4
f 8/5/5 6/6/5 2/7/5 4/8/5
