# Blender 4.0.1
# www.blender.org
mtllib SEA.mtl
o Plane
v 7.934603 -0.482344 -7.934603
v -7.934603 -0.482344 -7.934603
v 7.934603 -0.482344 7.934603
v -7.934603 -0.482344 7.934603
v 7.934603 -0.482344 3.967301
v 7.934603 -0.482344 0.000000
v 7.934603 -0.482344 -3.967301
v -7.934603 -0.482344 -3.967301
v -7.934603 -0.482344 0.000000
v -7.934603 -0.482344 3.967301
v 3.967301 -0.482344 -7.934603
v 0.000000 -0.482344 -7.934603
v -3.967301 -0.482344 -7.934603
v -3.967301 -0.482344 7.934603
v 0.000000 -0.482344 7.934603
v 3.967301 -0.482344 7.934603
v 3.967301 -0.482344 -3.967301
v 0.000000 -0.482344 -3.967301
v -3.967301 -0.482344 -3.967301
v 3.967301 -0.482344 0.000000
v 0.000000 -0.482344 0.000000
v -3.967301 -0.482344 0.000000
v 3.967301 -0.482344 3.967301
v 0.000000 -0.482344 3.967301
v -3.967301 -0.482344 3.967301
vn -0.0000 1.0000 -0.0000
vt 0.000000 0.000000
vt 0.000000 1.000000
vt 1.000000 1.000000
vt 1.000000 0.000000
s 0
usemtl Material.005
f 25/1/1 10/4/1 4/3/1 14/2/1
f 13/1/1 2/4/1 8/3/1 19/2/1
f 19/1/1 8/4/1 9/3/1 22/2/1
f 22/1/1 9/4/1 10/3/1 25/2/1
f 6/1/1 20/4/1 23/3/1 5/2/1
f 20/1/1 21/4/1 24/3/1 23/2/1
f 21/1/1 22/4/1 25/3/1 24/2/1
f 7/1/1 17/4/1 20/3/1 6/2/1
f 17/1/1 18/4/1 21/3/1 20/2/1
f 18/1/1 19/4/1 22/3/1 21/2/1
f 1/1/1 11/4/1 17/3/1 7/2/1
f 11/1/1 12/4/1 18/3/1 17/2/1
f 12/1/1 13/4/1 19/3/1 18/2/1
f 5/1/1 23/4/1 16/3/1 3/2/1
f 23/1/1 24/4/1 15/3/1 16/2/1
f 24/1/1 25/4/1 14/3/1 15/2/1
