# Blender 4.0.1
# www.blender.org
mtllib LOG.mtl
o Cylinder
v 1.896443 1.571194 4.197188
v 0.044900 3.352794 2.419809
v 1.760206 2.415816 4.197188
v 0.721656 3.216557 2.419809
v 1.372237 2.996454 4.197188
v 1.302293 2.828588 2.419809
v 0.791600 3.384423 4.197188
v 1.690262 2.247951 2.419809
v 0.044900 3.520660 4.197188
v 1.826499 1.571194 2.419809
v 0.044900 3.347421 0.807794
v 0.724632 3.212214 0.807794
v 1.300881 2.827176 0.807794
v 1.685919 2.250927 0.807794
v 1.821126 1.571194 0.807794
v 2.936821 1.571194 6.456997
v 2.699682 2.669499 6.456997
v 2.024366 3.680180 6.456997
v 1.013684 4.355496 6.456997
v 0.044900 4.592636 6.456997
v 2.071036 1.571194 6.456997
v 1.925361 2.465526 6.456997
v 1.510512 3.086391 6.456997
v 0.889646 3.501240 6.456997
v 0.044900 3.646916 6.456997
v 2.071036 1.571194 5.917436
v 1.925361 2.267351 5.917436
v 1.510512 2.888216 5.917436
v 0.889646 3.303065 5.917436
v 0.044900 3.448741 5.917436
v 1.896443 1.571194 -2.581600
v 0.044900 3.352794 -0.804222
v 1.760206 2.415816 -2.581600
v 0.721656 3.216557 -0.804221
v 1.372237 2.996454 -2.581600
v 1.302293 2.828588 -0.804221
v 0.791600 3.384423 -2.581600
v 1.690262 2.247951 -0.804222
v 0.044900 3.520660 -2.581600
v 1.826499 1.571194 -0.804222
v 2.936821 1.571194 -4.841409
v 2.699682 2.669499 -4.841409
v 2.024366 3.680180 -4.841409
v 1.013684 4.355496 -4.841409
v 0.044900 4.592636 -4.841409
v 2.071036 1.571194 -4.841409
v 1.925361 2.465526 -4.841409
v 1.510512 3.086391 -4.841409
v 0.889646 3.501240 -4.841409
v 0.044900 3.646916 -4.841409
v 2.071036 1.571194 -4.301848
v 1.925361 2.267351 -4.301848
v 1.510512 2.888216 -4.301848
v 0.889646 3.303065 -4.301848
v 0.044900 3.448741 -4.301848
v 0.044900 -0.210405 2.419809
v 1.760206 0.726572 4.197188
v 0.721656 -0.074168 2.419809
v 1.372237 0.145935 4.197188
v 1.302293 0.313801 2.419809
v 0.791600 -0.242034 4.197188
v 1.690262 0.894438 2.419809
v 0.044900 -0.378271 4.197188
v 0.044900 -0.205032 0.807794
v 0.724632 -0.069825 0.807794
v 1.300881 0.315213 0.807794
v 1.685919 0.891462 0.807794
v 2.699682 0.472890 6.456997
v 2.024366 -0.537791 6.456997
v 1.013684 -1.213107 6.456997
v 0.044900 -1.450247 6.456997
v 1.925361 0.676863 6.456997
v 1.510512 0.055998 6.456997
v 0.889646 -0.358851 6.456997
v 0.044900 -0.504527 6.456997
v 1.925361 0.875038 5.917436
v 1.510512 0.254173 5.917436
v 0.889646 -0.160676 5.917436
v 0.044900 -0.306352 5.917436
v 0.044900 -0.210405 -0.804222
v 1.760206 0.726572 -2.581600
v 0.721656 -0.074168 -0.804221
v 1.372237 0.145935 -2.581600
v 1.302293 0.313801 -0.804221
v 0.791600 -0.242034 -2.581600
v 1.690262 0.894438 -0.804222
v 0.044900 -0.378271 -2.581600
v 2.699682 0.472890 -4.841409
v 2.024366 -0.537791 -4.841409
v 1.013684 -1.213107 -4.841409
v 0.044900 -1.450247 -4.841409
v 1.925361 0.676863 -4.841409
v 1.510512 0.055998 -4.841409
v 0.889646 -0.358851 -4.841409
v 0.044900 -0.504527 -4.841409
v 1.925361 0.875038 -4.301848
v 1.510512 0.254173 -4.301848
v 0.889646 -0.160676 -4.301848
v 0.044900 -0.306352 -4.301848
v -1.806644 1.571194 4.197188
v -1.670407 2.415816 4.197188
v -0.631856 3.216557 2.419809
v -1.282438 2.996454 4.197188
v -1.212494 2.828588 2.419809
v -0.701800 3.384423 4.197188
v -1.600463 2.247951 2.419809
v -1.736700 1.571194 2.419809
v -0.634833 3.212214 0.807794
v -1.211082 2.827176 0.807794
v -1.596119 2.250927 0.807794
v -1.731326 1.571194 0.807794
v -2.847022 1.571194 6.456997
v -2.609882 2.669499 6.456997
v -1.934566 3.680180 6.456997
v -0.923885 4.355496 6.456997
v -1.981237 1.571194 6.456997
v -1.835561 2.465526 6.456997
v -1.420712 3.086391 6.456997
v -0.799847 3.501240 6.456997
v -1.981237 1.571194 5.917436
v -1.835561 2.267351 5.917436
v -1.420712 2.888216 5.917436
v -0.799847 3.303065 5.917436
v -1.806644 1.571194 -2.581600
v -1.670407 2.415816 -2.581600
v -0.631856 3.216557 -0.804221
v -1.282438 2.996454 -2.581600
v -1.212494 2.828588 -0.804221
v -0.701800 3.384423 -2.581600
v -1.600463 2.247951 -0.804222
v -1.736700 1.571194 -0.804222
v -2.847022 1.571194 -4.841409
v -2.609882 2.669499 -4.841409
v -1.934566 3.680180 -4.841409
v -0.923885 4.355496 -4.841409
v -1.981237 1.571194 -4.841409
v -1.835561 2.465526 -4.841409
v -1.420712 3.086391 -4.841409
v -0.799847 3.501240 -4.841409
v -1.981237 1.571194 -4.301848
v -1.835561 2.267351 -4.301848
v -1.420712 2.888216 -4.301848
v -0.799847 3.303065 -4.301848
v -1.670407 0.726572 4.197188
v -0.631856 -0.074168 2.419809
v -1.282438 0.145935 4.197188
v -1.212494 0.313801 2.419809
v -0.701800 -0.242034 4.197188
v -1.600463 0.894438 2.419809
v -0.634833 -0.069825 0.807794
v -1.211082 0.315213 0.807794
v -1.596119 0.891462 0.807794
v -2.609882 0.472890 6.456997
v -1.934566 -0.537791 6.456997
v -0.923885 -1.213107 6.456997
v -1.835561 0.676863 6.456997
v -1.420712 0.055998 6.456997
v -0.799847 -0.358851 6.456997
v -1.835561 0.875038 5.917436
v -1.420712 0.254173 5.917436
v -0.799847 -0.160676 5.917436
v -1.670407 0.726572 -2.581600
v -0.631856 -0.074168 -0.804221
v -1.282438 0.145935 -2.581600
v -1.212494 0.313801 -0.804221
v -0.701800 -0.242034 -2.581600
v -1.600463 0.894438 -0.804222
v -2.609882 0.472890 -4.841409
v -1.934566 -0.537791 -4.841409
v -0.923885 -1.213107 -4.841409
v -1.835561 0.676863 -4.841409
v -1.420712 0.055998 -4.841409
v -0.799847 -0.358851 -4.841409
v -1.835561 0.875038 -4.301848
v -1.420712 0.254173 -4.301848
v -0.799847 -0.160676 -4.301848
v 0.044900 0.143392 5.917436
v 0.044900 0.816481 5.917436
v 0.044900 1.571194 5.917436
v 0.044900 2.325908 5.917436
v 0.044900 2.998997 5.917436
v 0.044900 0.143392 -4.301847
v 0.044900 0.816481 -4.301848
v 0.044900 1.571194 -4.301848
v 0.044900 2.325908 -4.301848
v 0.044900 2.998997 -4.301848
vn 0.1962 0.9806 -0.0028
vn 0.5556 0.8315 -0.0012
vn 0.8315 0.5556 -0.0012
vn 0.9806 0.1962 -0.0028
vn 0.5528 0.8273 -0.0999
vn 0.8285 0.5536 -0.0849
vn 0.1871 0.9776 -0.0960
vn 0.9832 0.1761 -0.0470
vn 0.8986 0.1727 -0.4033
vn 0.1938 0.8903 -0.4120
vn 0.5137 0.7688 -0.3809
vn 0.7698 0.5144 -0.3778
vn -0.0000 -0.0000 1.0000
vn -0.8147 -0.5444 0.1999
vn -0.5313 -0.7952 0.2921
vn -0.9831 -0.1801 0.0331
vn -0.1598 -0.9266 0.3403
vn 0.1962 0.9806 0.0028
vn 0.5556 0.8315 0.0012
vn 0.8315 0.5556 0.0012
vn 0.9806 0.1962 0.0028
vn 0.5528 0.8273 0.0999
vn 0.8285 0.5536 0.0849
vn 0.1871 0.9776 0.0960
vn 0.9832 0.1761 0.0470
vn 0.8986 0.1727 0.4033
vn 0.1938 0.8903 0.4120
vn 0.5137 0.7688 0.3809
vn 0.7698 0.5144 0.3778
vn -0.0000 -0.0000 -1.0000
vn -0.8147 -0.5444 -0.1999
vn -0.5313 -0.7952 -0.2921
vn -0.9831 -0.1801 -0.0331
vn -0.1598 -0.9266 -0.3403
vn 0.1962 -0.9806 -0.0028
vn 0.5556 -0.8315 -0.0012
vn 0.8315 -0.5556 -0.0012
vn 0.9806 -0.1962 -0.0028
vn 0.5528 -0.8273 -0.0999
vn 0.8285 -0.5536 -0.0849
vn 0.1871 -0.9776 -0.0960
vn 0.9832 -0.1761 -0.0470
vn 0.8986 -0.1727 -0.4033
vn 0.1938 -0.8903 -0.4120
vn 0.5137 -0.7688 -0.3809
vn 0.7698 -0.5144 -0.3778
vn -0.8147 0.5444 0.1999
vn -0.5313 0.7952 0.2921
vn -0.9831 0.1801 0.0331
vn -0.1598 0.9266 0.3403
vn 0.1962 -0.9806 0.0028
vn 0.5556 -0.8315 0.0012
vn 0.8315 -0.5556 0.0012
vn 0.9806 -0.1962 0.0028
vn 0.5528 -0.8273 0.0999
vn 0.8285 -0.5536 0.0849
vn 0.1871 -0.9776 0.0960
vn 0.9832 -0.1761 0.0470
vn 0.8986 -0.1727 0.4033
vn 0.1938 -0.8903 0.4120
vn 0.5137 -0.7688 0.3809
vn 0.7698 -0.5144 0.3778
vn -0.8147 0.5444 -0.1999
vn -0.5313 0.7952 -0.2921
vn -0.9831 0.1801 -0.0331
vn -0.1598 0.9266 -0.3403
vn -0.1962 0.9806 -0.0028
vn -0.5556 0.8315 -0.0012
vn -0.8315 0.5556 -0.0012
vn -0.9806 0.1962 -0.0028
vn -0.5528 0.8273 -0.0999
vn -0.8285 0.5536 -0.0849
vn -0.1871 0.9776 -0.0960
vn -0.9832 0.1761 -0.0470
vn -0.8986 0.1727 -0.4033
vn -0.1938 0.8903 -0.4120
vn -0.5137 0.7688 -0.3809
vn -0.7698 0.5144 -0.3778
vn 0.8147 -0.5444 0.1999
vn 0.5313 -0.7952 0.2921
vn 0.9831 -0.1801 0.0331
vn 0.1598 -0.9266 0.3403
vn -0.1962 0.9806 0.0028
vn -0.5556 0.8315 0.0012
vn -0.8315 0.5556 0.0012
vn -0.9806 0.1962 0.0028
vn -0.5528 0.8273 0.0999
vn -0.8285 0.5536 0.0849
vn -0.1871 0.9776 0.0960
vn -0.9832 0.1761 0.0470
vn -0.8986 0.1727 0.4033
vn -0.1938 0.8903 0.4120
vn -0.5137 0.7688 0.3809
vn -0.7698 0.5144 0.3778
vn 0.8147 -0.5444 -0.1999
vn 0.5313 -0.7952 -0.2921
vn 0.9831 -0.1801 -0.0331
vn 0.1598 -0.9266 -0.3403
vn -0.1962 -0.9806 -0.0028
vn -0.5556 -0.8315 -0.0012
vn -0.8315 -0.5556 -0.0012
vn -0.9806 -0.1962 -0.0028
vn -0.5528 -0.8273 -0.0999
vn -0.8285 -0.5536 -0.0849
vn -0.1871 -0.9776 -0.0960
vn -0.9832 -0.1761 -0.0470
vn -0.8986 -0.1727 -0.4033
vn -0.1938 -0.8903 -0.4120
vn -0.5137 -0.7688 -0.3809
vn -0.7698 -0.5144 -0.3778
vn 0.8147 0.5444 0.1999
vn 0.5313 0.7952 0.2921
vn 0.9831 0.1801 0.0331
vn 0.1598 0.9266 0.3403
vn -0.1962 -0.9806 0.0028
vn -0.5556 -0.8315 0.0012
vn -0.8315 -0.5556 0.0012
vn -0.9806 -0.1962 0.0028
vn -0.5528 -0.8273 0.0999
vn -0.8285 -0.5536 0.0849
vn -0.1871 -0.9776 0.0960
vn -0.9832 -0.1761 0.0470
vn -0.8986 -0.1727 0.4033
vn -0.1938 -0.8903 0.4120
vn -0.5137 -0.7688 0.3809
vn -0.7698 -0.5144 0.3778
vn 0.8147 0.5444 -0.1999
vn 0.5313 0.7952 -0.2921
vn 0.9831 0.1801 -0.0331
vn 0.1598 0.9266 -0.3403
vt 0.068111 0.490959
vt 0.063457 0.378982
vt 0.106337 0.375855
vt 0.111291 0.489283
vt 0.150560 0.373170
vt 0.154693 0.487952
vt 0.195381 0.371085
vt 0.198396 0.486942
vt 0.239972 0.369649
vt 0.242369 0.486228
vt 0.094985 0.253091
vt 0.137690 0.247846
vt 0.181438 0.243856
vt 0.050844 0.260926
vt 0.235384 0.241070
vt 0.176035 0.100649
vt 0.228001 0.097111
vt 0.006467 0.119774
vt 0.058505 0.113915
vt 0.117858 0.106342
vt 0.017152 0.065596
vt 0.069569 0.068659
vt 0.117150 0.065190
vt 0.165493 0.059840
vt 0.225079 0.051996
vt 0.122262 0.024783
vt 0.172320 0.018249
vt 0.073790 0.028997
vt 0.221441 0.011069
vt 0.020702 0.026997
vt 0.114222 0.600461
vt 0.073021 0.600448
vt 0.156851 0.600629
vt 0.200178 0.600838
vt 0.243382 0.601009
vt 0.150186 0.719273
vt 0.110410 0.716161
vt 0.191049 0.721679
vt 0.069411 0.711241
vt 0.241594 0.723348
vt 0.235733 0.854161
vt 0.188919 0.851670
vt 0.082520 0.843353
vt 0.035436 0.840198
vt 0.136315 0.848012
vt 0.094161 0.883636
vt 0.047235 0.888435
vt 0.180309 0.888473
vt 0.136944 0.885062
vt 0.233377 0.894309
vt 0.187409 0.925153
vt 0.142832 0.920939
vt 0.099428 0.918978
vt 0.230679 0.930196
vt 0.051950 0.922876
vt 0.419213 0.485819
vt 0.375125 0.485619
vt 0.376044 0.368405
vt 0.420864 0.369473
vt 0.330851 0.485595
vt 0.330441 0.368103
vt 0.286554 0.485789
vt 0.284827 0.368539
vt 0.334358 0.238492
vt 0.378603 0.239346
vt 0.289656 0.238760
vt 0.426075 0.242001
vt 0.280404 0.093942
vt 0.396568 0.100260
vt 0.438213 0.106878
vt 0.339508 0.094124
vt 0.389240 0.055597
vt 0.444286 0.062430
vt 0.286955 0.050223
vt 0.338423 0.048906
vt 0.273157 0.007375
vt 0.330506 0.005532
vt 0.388982 0.010991
vt 0.451516 0.021176
vt 0.419934 0.601264
vt 0.375994 0.601665
vt 0.331415 0.601668
vt 0.286974 0.601422
vt 0.377424 0.726796
vt 0.335112 0.726357
vt 0.292731 0.725439
vt 0.422960 0.725941
vt 0.282916 0.857090
vt 0.428694 0.858658
vt 0.389433 0.858649
vt 0.336561 0.858832
vt 0.430400 0.898430
vt 0.379244 0.897742
vt 0.333684 0.897040
vt 0.287878 0.895672
vt 0.323900 0.935467
vt 0.275336 0.932768
vt 0.374255 0.937251
vt 0.432385 0.937251
vt 0.749250 0.489760
vt 0.710732 0.489279
vt 0.714704 0.388582
vt 0.751957 0.391837
vt 0.671478 0.488754
vt 0.675619 0.385292
vt 0.631380 0.488202
vt 0.635300 0.382122
vt 0.590439 0.487644
vt 0.594509 0.379179
vt 0.692510 0.275644
vt 0.729114 0.282762
vt 0.654386 0.269143
vt 0.766223 0.291814
vt 0.606455 0.262411
vt 0.628766 0.138077
vt 0.672707 0.146667
vt 0.770938 0.168039
vt 0.814109 0.176984
vt 0.721558 0.156872
vt 0.765325 0.129148
vt 0.809434 0.130810
vt 0.685683 0.113211
vt 0.725748 0.122208
vt 0.636615 0.100318
vt 0.684151 0.077911
vt 0.725093 0.088014
vt 0.765108 0.095661
vt 0.644459 0.066954
vt 0.809594 0.098295
vt 0.749645 0.588081
vt 0.712124 0.590272
vt 0.672875 0.592388
vt 0.632506 0.594321
vt 0.591781 0.596013
vt 0.723032 0.697127
vt 0.686048 0.702828
vt 0.647712 0.707816
vt 0.760753 0.689471
vt 0.599783 0.712614
vt 0.660088 0.831198
vt 0.615708 0.837517
vt 0.803703 0.807436
vt 0.759789 0.814436
vt 0.709583 0.823353
vt 0.796814 0.853751
vt 0.752292 0.853324
vt 0.712113 0.858386
vt 0.671387 0.865402
vt 0.621451 0.875684
vt 0.709734 0.892780
vt 0.667962 0.900824
vt 0.750445 0.887052
vt 0.627358 0.909655
vt 0.795414 0.886535
vt 0.465210 0.371147
vt 0.462937 0.486158
vt 0.509417 0.373442
vt 0.506137 0.486596
vt 0.552713 0.376166
vt 0.548669 0.487101
vt 0.472879 0.245597
vt 0.515381 0.250188
vt 0.557123 0.255274
vt 0.584144 0.128776
vt 0.479278 0.111905
vt 0.532331 0.119420
vt 0.496328 0.073457
vt 0.541201 0.082169
vt 0.585094 0.090873
vt 0.557507 0.046754
vt 0.602956 0.057631
vt 0.509402 0.035053
vt 0.463571 0.600510
vt 0.507241 0.599307
vt 0.550185 0.597787
vt 0.509658 0.721160
vt 0.468174 0.724101
vt 0.550759 0.717745
vt 0.570761 0.844359
vt 0.467334 0.855169
vt 0.519083 0.850688
vt 0.480845 0.892722
vt 0.569376 0.882006
vt 0.525254 0.887650
vt 0.584977 0.916443
vt 0.538532 0.923953
vt 0.489728 0.930988
vt 0.950466 0.535554
vt 0.942677 0.454093
vt 0.967353 0.449837
vt 0.967353 0.497564
vt 0.922731 0.374727
vt 0.951367 0.404867
vt 0.920326 0.564190
vt 0.905747 0.460461
vt 0.884741 0.357840
vt 0.883509 0.578770
vt 0.864338 0.467602
vt 0.845167 0.356435
vt 0.843934 0.577364
vt 0.822929 0.474743
vt 0.808349 0.371014
vt 0.805944 0.560477
vt 0.785999 0.481112
vt 0.778210 0.399650
vt 0.777308 0.530337
vt 0.761323 0.485367
vt 0.761323 0.437640
vt 0.788688 0.732903
vt 0.788688 0.685176
vt 0.813364 0.689432
vt 0.805575 0.770893
vt 0.804673 0.640206
vt 0.833309 0.610066
vt 0.850294 0.695800
vt 0.835714 0.799529
vt 0.871299 0.593179
vt 0.891703 0.702941
vt 0.872532 0.814109
vt 0.910874 0.591774
vt 0.933112 0.710082
vt 0.912106 0.812703
vt 0.947691 0.606353
vt 0.970042 0.716451
vt 0.950096 0.795816
vt 0.977831 0.634989
vt 0.994718 0.720706
vt 0.978732 0.765676
vt 0.994718 0.672979
s 0
usemtl Material.010
f 11/1/1 2/2/1 4/3/1 12/4/1
f 12/4/2 4/3/2 6/5/2 13/6/2
f 13/6/3 6/5/3 8/7/3 14/8/3
f 14/8/4 8/7/4 10/9/4 15/10/4
f 6/5/5 4/3/5 7/11/5 5/12/5
f 8/7/6 6/5/6 5/12/6 3/13/6
f 4/3/7 2/2/7 9/14/7 7/11/7
f 10/9/8 8/7/8 3/13/8 1/15/8
f 1/15/9 3/13/9 17/16/9 16/17/9
f 7/11/10 9/14/10 20/18/10 19/19/10
f 5/12/11 7/11/11 19/19/11 18/20/11
f 3/13/12 5/12/12 18/20/12 17/16/12
f 19/19/13 20/18/13 25/21/13 24/22/13
f 17/16/13 18/20/13 23/23/13 22/24/13
f 18/20/13 19/19/13 24/22/13 23/23/13
f 16/17/13 17/16/13 22/24/13 21/25/13
f 22/24/14 23/23/14 28/26/14 27/27/14
f 23/23/15 24/22/15 29/28/15 28/26/15
f 21/25/16 22/24/16 27/27/16 26/29/16
f 24/22/17 25/21/17 30/30/17 29/28/17
f 11/1/18 12/4/18 34/31/18 32/32/18
f 12/4/19 13/6/19 36/33/19 34/31/19
f 13/6/20 14/8/20 38/34/20 36/33/20
f 14/8/21 15/10/21 40/35/21 38/34/21
f 36/33/22 35/36/22 37/37/22 34/31/22
f 38/34/23 33/38/23 35/36/23 36/33/23
f 34/31/24 37/37/24 39/39/24 32/32/24
f 40/35/25 31/40/25 33/38/25 38/34/25
f 31/40/26 41/41/26 42/42/26 33/38/26
f 37/37/27 44/43/27 45/44/27 39/39/27
f 35/36/28 43/45/28 44/43/28 37/37/28
f 33/38/29 42/42/29 43/45/29 35/36/29
f 44/43/30 49/46/30 50/47/30 45/44/30
f 42/42/30 47/48/30 48/49/30 43/45/30
f 43/45/30 48/49/30 49/46/30 44/43/30
f 41/41/30 46/50/30 47/48/30 42/42/30
f 47/48/31 52/51/31 53/52/31 48/49/31
f 48/49/32 53/52/32 54/53/32 49/46/32
f 46/50/33 51/54/33 52/51/33 47/48/33
f 49/46/34 54/53/34 55/55/34 50/47/34
f 64/56/35 65/57/35 58/58/35 56/59/35
f 65/57/36 66/60/36 60/61/36 58/58/36
f 66/60/37 67/62/37 62/63/37 60/61/37
f 67/62/38 15/10/38 10/9/38 62/63/38
f 60/61/39 59/64/39 61/65/39 58/58/39
f 62/63/40 57/66/40 59/64/40 60/61/40
f 58/58/41 61/65/41 63/67/41 56/59/41
f 10/9/42 1/15/42 57/66/42 62/63/42
f 1/15/43 16/17/43 68/68/43 57/66/43
f 61/65/44 70/69/44 71/70/44 63/67/44
f 59/64/45 69/71/45 70/69/45 61/65/45
f 57/66/46 68/68/46 69/71/46 59/64/46
f 70/69/13 74/72/13 75/73/13 71/70/13
f 68/68/13 72/74/13 73/75/13 69/71/13
f 69/71/13 73/75/13 74/72/13 70/69/13
f 16/17/13 21/25/13 72/74/13 68/68/13
f 72/74/47 76/76/47 77/77/47 73/75/47
f 73/75/48 77/77/48 78/78/48 74/72/48
f 21/25/49 26/29/49 76/76/49 72/74/49
f 74/72/50 78/78/50 79/79/50 75/73/50
f 64/56/51 80/80/51 82/81/51 65/57/51
f 65/57/52 82/81/52 84/82/52 66/60/52
f 66/60/53 84/82/53 86/83/53 67/62/53
f 67/62/54 86/83/54 40/35/54 15/10/54
f 84/82/55 82/81/55 85/84/55 83/85/55
f 86/83/56 84/82/56 83/85/56 81/86/56
f 82/81/57 80/80/57 87/87/57 85/84/57
f 40/35/58 86/83/58 81/86/58 31/40/58
f 31/40/59 81/86/59 88/88/59 41/41/59
f 85/84/60 87/87/60 91/89/60 90/90/60
f 83/85/61 85/84/61 90/90/61 89/91/61
f 81/86/62 83/85/62 89/91/62 88/88/62
f 90/90/30 91/89/30 95/92/30 94/93/30
f 88/88/30 89/91/30 93/94/30 92/95/30
f 89/91/30 90/90/30 94/93/30 93/94/30
f 41/41/30 88/88/30 92/95/30 46/50/30
f 92/95/63 93/94/63 97/96/63 96/97/63
f 93/94/64 94/93/64 98/98/64 97/96/64
f 46/50/65 92/95/65 96/97/65 51/54/65
f 94/93/66 95/92/66 99/99/66 98/98/66
f 11/100/67 108/101/67 102/102/67 2/103/67
f 108/101/68 109/104/68 104/105/68 102/102/68
f 109/104/69 110/106/69 106/107/69 104/105/69
f 110/106/70 111/108/70 107/109/70 106/107/70
f 104/105/71 103/110/71 105/111/71 102/102/71
f 106/107/72 101/112/72 103/110/72 104/105/72
f 102/102/73 105/111/73 9/113/73 2/103/73
f 107/109/74 100/114/74 101/112/74 106/107/74
f 100/114/75 112/115/75 113/116/75 101/112/75
f 105/111/76 115/117/76 20/118/76 9/113/76
f 103/110/77 114/119/77 115/117/77 105/111/77
f 101/112/78 113/116/78 114/119/78 103/110/78
f 115/117/13 119/120/13 25/121/13 20/118/13
f 113/116/13 117/122/13 118/123/13 114/119/13
f 114/119/13 118/123/13 119/120/13 115/117/13
f 112/115/13 116/124/13 117/122/13 113/116/13
f 117/122/79 121/125/79 122/126/79 118/123/79
f 118/123/80 122/126/80 123/127/80 119/120/80
f 116/124/81 120/128/81 121/125/81 117/122/81
f 119/120/82 123/127/82 30/129/82 25/121/82
f 11/100/83 32/130/83 126/131/83 108/101/83
f 108/101/84 126/131/84 128/132/84 109/104/84
f 109/104/85 128/132/85 130/133/85 110/106/85
f 110/106/86 130/133/86 131/134/86 111/108/86
f 128/132/87 126/131/87 129/135/87 127/136/87
f 130/133/88 128/132/88 127/136/88 125/137/88
f 126/131/89 32/130/89 39/138/89 129/135/89
f 131/134/90 130/133/90 125/137/90 124/139/90
f 124/139/91 125/137/91 133/140/91 132/141/91
f 129/135/92 39/138/92 45/142/92 135/143/92
f 127/136/93 129/135/93 135/143/93 134/144/93
f 125/137/94 127/136/94 134/144/94 133/140/94
f 135/143/30 45/142/30 50/145/30 139/146/30
f 133/140/30 134/144/30 138/147/30 137/148/30
f 134/144/30 135/143/30 139/146/30 138/147/30
f 132/141/30 133/140/30 137/148/30 136/149/30
f 137/148/95 138/147/95 142/150/95 141/151/95
f 138/147/96 139/146/96 143/152/96 142/150/96
f 136/149/97 137/148/97 141/151/97 140/153/97
f 139/146/98 50/145/98 55/154/98 143/152/98
f 64/56/99 56/59/99 145/155/99 150/156/99
f 150/156/100 145/155/100 147/157/100 151/158/100
f 151/158/101 147/157/101 149/159/101 152/160/101
f 152/160/102 149/159/102 107/109/102 111/108/102
f 147/157/103 145/155/103 148/161/103 146/162/103
f 149/159/104 147/157/104 146/162/104 144/163/104
f 145/155/105 56/59/105 63/67/105 148/161/105
f 107/109/106 149/159/106 144/163/106 100/114/106
f 100/114/107 144/163/107 153/164/107 112/115/107
f 148/161/108 63/67/108 71/70/108 155/165/108
f 146/162/109 148/161/109 155/165/109 154/166/109
f 144/163/110 146/162/110 154/166/110 153/164/110
f 155/165/13 71/70/13 75/73/13 158/167/13
f 153/164/13 154/166/13 157/168/13 156/169/13
f 154/166/13 155/165/13 158/167/13 157/168/13
f 112/115/13 153/164/13 156/169/13 116/124/13
f 156/169/111 157/168/111 160/170/111 159/171/111
f 157/168/112 158/167/112 161/172/112 160/170/112
f 116/124/113 156/169/113 159/171/113 120/128/113
f 158/167/114 75/73/114 79/79/114 161/172/114
f 64/56/115 150/156/115 163/173/115 80/80/115
f 150/156/116 151/158/116 165/174/116 163/173/116
f 151/158/117 152/160/117 167/175/117 165/174/117
f 152/160/118 111/108/118 131/134/118 167/175/118
f 165/174/119 164/176/119 166/177/119 163/173/119
f 167/175/120 162/178/120 164/176/120 165/174/120
f 163/173/121 166/177/121 87/87/121 80/80/121
f 131/134/122 124/139/122 162/178/122 167/175/122
f 124/139/123 132/141/123 168/179/123 162/178/123
f 166/177/124 170/180/124 91/89/124 87/87/124
f 164/176/125 169/181/125 170/180/125 166/177/125
f 162/178/126 168/179/126 169/181/126 164/176/126
f 170/180/30 173/182/30 95/92/30 91/89/30
f 168/179/30 171/183/30 172/184/30 169/181/30
f 169/181/30 172/184/30 173/182/30 170/180/30
f 132/141/30 136/149/30 171/183/30 168/179/30
f 171/183/127 174/185/127 175/186/127 172/184/127
f 172/184/128 175/186/128 176/187/128 173/182/128
f 136/149/129 140/153/129 174/185/129 171/183/129
f 173/182/130 176/187/130 99/99/130 95/92/130
f 77/188/13 177/189/13 79/190/13 78/191/13
f 177/189/13 160/192/13 161/193/13 79/190/13
f 76/194/13 178/195/13 177/189/13 77/188/13
f 178/195/13 159/196/13 160/192/13 177/189/13
f 26/197/13 179/198/13 178/195/13 76/194/13
f 179/198/13 120/199/13 159/196/13 178/195/13
f 27/200/13 180/201/13 179/198/13 26/197/13
f 180/201/13 121/202/13 120/199/13 179/198/13
f 28/203/13 181/204/13 180/201/13 27/200/13
f 181/204/13 122/205/13 121/202/13 180/201/13
f 29/206/13 30/207/13 181/204/13 28/203/13
f 30/207/13 123/208/13 122/205/13 181/204/13
f 98/209/30 99/210/30 182/211/30 97/212/30
f 99/210/30 176/213/30 175/214/30 182/211/30
f 97/212/30 182/211/30 183/215/30 96/216/30
f 182/211/30 175/214/30 174/217/30 183/215/30
f 96/216/30 183/215/30 184/218/30 51/219/30
f 183/215/30 174/217/30 140/220/30 184/218/30
f 51/219/30 184/218/30 185/221/30 52/222/30
f 184/218/30 140/220/30 141/223/30 185/221/30
f 52/222/30 185/221/30 186/224/30 53/225/30
f 185/221/30 141/223/30 142/226/30 186/224/30
f 53/225/30 186/224/30 55/227/30 54/228/30
f 186/224/30 142/226/30 143/229/30 55/227/30
