# Blender 4.0.1
# www.blender.org
mtllib BARCO.mtl
o Cube
v 2.267286 0.714628 4.393928
v 1.655752 4.248142 5.601230
v 2.867108 0.420367 -0.721567
v 2.867108 4.068069 -0.721567
v 0.000000 0.796282 5.047160
v 0.000000 4.222306 6.090240
v 2.867108 2.276880 -0.721567
v 2.267286 2.374866 5.337958
v 0.000000 2.505512 6.170829
v 1.700646 1.384694 -4.004058
v 2.848045 0.466648 2.301375
v 2.147532 4.180798 2.923063
v 2.848045 2.358534 2.727259
v 2.425237 0.471138 -3.105864
v 1.752579 3.932931 -2.889656
v 0.000000 0.471138 -3.105864
v 2.425237 2.244218 -3.187518
v 1.225519 3.862400 -4.006271
v 0.000000 1.645987 -4.412328
v 0.000000 3.850620 -4.194564
v 1.700646 2.766804 -4.640959
v 0.000000 2.848458 -4.902252
v 2.848045 4.185097 2.988552
v 2.267286 4.263733 6.151341
v 0.000000 4.231071 6.820906
v 0.000000 3.805967 -4.902253
v 1.700646 3.822298 -4.640959
v 2.165938 4.072016 -0.659205
v 2.425237 3.919313 -3.105864
v 0.000000 3.085505 -0.326864
v 1.579034 4.357720 0.591245
v 0.000000 4.370800 3.699698
v 0.000000 3.214778 5.680697
v 1.518399 4.365127 2.852461
v 0.562535 3.020624 -1.567349
v 0.000000 2.989941 -2.165000
v 1.577485 3.237957 5.241980
v 0.491539 2.992021 -2.074401
v 0.000000 3.050926 -1.039090
v 0.553380 3.054491 -1.165293
v 0.000000 3.181396 4.650504
v 2.018689 3.177539 3.510247
v 0.000000 5.893989 -0.323553
v 0.000000 5.718123 3.085318
v 1.508447 5.622461 0.556334
v 1.541871 5.698482 2.350719
v 0.000000 6.288765 0.093879
v 0.000000 6.332352 2.422962
v 1.017913 6.289835 0.286031
v 1.011015 6.331137 1.908321
v 0.000000 3.076404 -0.430552
v 2.035202 3.079944 -0.374604
v 0.000000 2.881318 -3.546371
v 1.191499 2.891886 -3.377444
v 1.664355 2.955164 -2.375666
v 0.000000 3.171641 4.211823
v 1.610639 3.169240 3.229412
v 1.624272 3.087618 0.023411
v 0.000000 5.955111 2.942560
v 1.457886 5.953406 2.220870
v 1.467560 5.895488 -0.054095
v 1.279572 5.698482 2.239301
v 1.256100 4.365127 2.741044
v 0.000000 5.718123 2.792077
v 0.000000 4.370800 3.406456
v 1.316735 4.357720 0.591245
v 1.246148 5.622461 0.556334
v 1.864525 0.033273 1.879030
v 1.878231 -0.000000 -0.294321
v 0.000000 0.270265 3.853119
v 1.446987 0.211560 3.383476
v 0.000000 -0.000000 -0.294321
v 0.000000 0.033273 1.879030
v 1.560546 0.036502 -2.008518
v 0.000000 0.036502 -2.008518
v -2.267286 0.714628 4.393928
v -1.655752 4.248142 5.601230
v -2.867108 0.420367 -0.721567
v -2.867108 4.068069 -0.721567
v -2.867108 2.276880 -0.721567
v -2.267286 2.374866 5.337958
v -1.700646 1.384694 -4.004058
v -2.848045 0.466648 2.301375
v -2.147532 4.180798 2.923063
v -2.848045 2.358534 2.727259
v -2.425237 0.471138 -3.105864
v -1.752579 3.932931 -2.889656
v -2.425237 2.244218 -3.187518
v -1.225519 3.862400 -4.006271
v -1.700646 2.766804 -4.640959
v -2.848045 4.185097 2.988552
v -2.267286 4.263733 6.151341
v -1.700646 3.822298 -4.640959
v -2.165938 4.072016 -0.659205
v -2.425237 3.919313 -3.105864
v -1.579034 4.357720 0.591245
v -1.518399 4.365127 2.852461
v -0.562535 3.020624 -1.567349
v -1.577485 3.237957 5.241980
v -0.491539 2.992021 -2.074401
v -0.553380 3.054491 -1.165293
v -2.018689 3.177539 3.510247
v -1.508447 5.622461 0.556334
v -1.541871 5.698482 2.350719
v -1.017913 6.289835 0.286031
v -1.011015 6.331137 1.908321
v -2.035202 3.079944 -0.374604
v -1.191499 2.891886 -3.377444
v -1.664355 2.955164 -2.375666
v -0.000000 3.015995 -1.536194
v -0.160968 6.402637 -6.226269
v -0.136747 6.461731 -6.422325
v -0.148857 6.432184 -6.324297
v -1.610639 3.169240 3.229412
v -1.624272 3.087618 0.023411
v -1.457886 5.953406 2.220870
v -1.467560 5.895488 -0.054095
v -1.279572 5.698482 2.239301
v -1.256100 4.365127 2.741044
v -1.316735 4.357720 0.591245
v -1.246148 5.622461 0.556334
v -1.864525 0.033273 1.879030
v -1.878231 -0.000000 -0.294321
v -1.446987 0.211560 3.383476
v -1.560546 0.036502 -2.008518
vn 0.9838 0.0042 -0.1794
vn 0.9786 -0.0572 0.1978
vn 0.3972 -0.9176 0.0166
vn -0.9750 0.0767 -0.2085
vn 0.2865 -0.3596 0.8881
vn 0.2469 -0.5068 0.8259
vn 0.9653 -0.0940 0.2437
vn -0.9698 0.1762 0.1687
vn 1.0000 -0.0007 0.0059
vn -0.1273 0.5469 0.8274
vn 0.3223 -0.9255 0.1991
vn 1.0000 -0.0004 0.0053
vn 0.9004 0.0130 -0.4348
vn 0.8061 -0.1314 -0.5770
vn 0.9838 -0.0040 -0.1793
vn -0.0000 -0.9297 -0.3682
vn 0.1519 -0.0000 -0.9884
vn 0.1388 -0.3958 -0.9078
vn 0.0227 -0.7221 -0.6915
vn -0.8734 0.2860 0.3942
vn -0.0032 0.9997 -0.0256
vn -0.0180 0.9998 -0.0104
vn 0.0001 0.9980 -0.0630
vn 0.0001 0.9981 -0.0623
vn -0.0002 0.9995 -0.0310
vn -0.0000 0.9980 -0.0630
vn -0.0218 0.9991 -0.0374
vn 0.0007 1.0000 -0.0033
vn -0.9921 0.1255 -0.0081
vn -0.2630 0.3524 -0.8981
vn 0.0020 0.9995 -0.0318
vn -0.0097 0.9998 -0.0196
vn -0.0044 0.9997 -0.0253
vn 0.2804 0.7810 0.5580
vn 0.1965 -0.0075 -0.9805
vn -0.0093 -0.9990 0.0439
vn -0.0033 0.9998 -0.0215
vn 0.6522 0.7579 -0.0165
vn 0.1254 0.7233 -0.6790
vn -0.0036 0.9995 -0.0325
vn 0.0043 0.9971 -0.0764
vn 0.0150 0.9976 -0.0681
vn 0.0144 0.9977 -0.0660
vn -0.0181 0.9969 -0.0765
vn 0.4786 0.3217 0.8170
vn 0.9984 0.0547 0.0127
vn 0.3818 0.4970 0.7792
vn 0.9769 0.2132 -0.0127
vn 0.9976 0.0545 -0.0424
vn 0.9998 0.0195 0.0067
vn 0.4088 0.3477 0.8438
vn -0.0000 0.0276 0.9996
vn -0.0107 -0.9999 0.0070
vn 0.0030 1.0000 -0.0020
vn -0.0008 -0.9930 0.1184
vn -0.0000 -0.9999 0.0153
vn -0.0000 -0.9998 -0.0213
vn 0.0850 -0.9146 0.3953
vn 0.3580 -0.9297 -0.0861
vn -0.9838 0.0042 -0.1794
vn -0.9786 -0.0572 0.1978
vn -0.3972 -0.9176 0.0166
vn 0.9750 0.0767 -0.2085
vn -0.2865 -0.3596 0.8881
vn -0.2469 -0.5068 0.8259
vn -0.9653 -0.0940 0.2437
vn 0.9698 0.1762 0.1687
vn -1.0000 -0.0007 0.0059
vn 0.1273 0.5469 0.8274
vn -0.3223 -0.9255 0.1991
vn -1.0000 -0.0004 0.0053
vn -0.9004 0.0130 -0.4348
vn -0.8061 -0.1314 -0.5770
vn -0.9838 -0.0040 -0.1793
vn -0.1519 -0.0000 -0.9884
vn -0.1388 -0.3958 -0.9078
vn -0.0227 -0.7221 -0.6915
vn 0.8734 0.2860 0.3942
vn 0.0032 0.9997 -0.0256
vn 0.0180 0.9998 -0.0104
vn -0.0001 0.9980 -0.0630
vn -0.0001 0.9981 -0.0623
vn 0.0002 0.9995 -0.0310
vn 0.0218 0.9991 -0.0374
vn -0.0007 1.0000 -0.0033
vn 0.9921 0.1255 -0.0081
vn 0.2630 0.3524 -0.8981
vn -0.0020 0.9995 -0.0318
vn 0.0097 0.9998 -0.0196
vn 0.0044 0.9997 -0.0253
vn -0.2804 0.7810 0.5580
vn -0.1965 -0.0075 -0.9805
vn 0.0093 -0.9990 0.0439
vn 0.0033 0.9998 -0.0215
vn -0.6522 0.7579 -0.0165
vn -0.1254 0.7233 -0.6790
vn 0.0036 0.9995 -0.0325
vn -0.0043 0.9971 -0.0764
vn -0.0150 0.9976 -0.0681
vn -0.0144 0.9977 -0.0660
vn 0.0037 0.9988 -0.0478
vn 0.0181 0.9969 -0.0765
vn -0.4786 0.3217 0.8170
vn -0.9984 0.0547 0.0127
vn -0.3818 0.4970 0.7792
vn -0.9769 0.2132 -0.0127
vn -0.9976 0.0545 -0.0424
vn -0.9998 0.0195 0.0067
vn -0.4088 0.3477 0.8438
vn 0.0107 -0.9999 0.0070
vn -0.0030 1.0000 -0.0020
vn 0.0008 -0.9930 0.1184
vn -0.0850 -0.9146 0.3953
vn -0.3580 -0.9297 -0.0861
vn -0.0037 0.9988 -0.0478
vt 0.528631 0.523630
vt 0.516243 0.422314
vt 0.652087 0.405447
vt 0.660607 0.495052
vt 0.324138 0.451399
vt 0.323746 0.558124
vt 0.157895 0.565258
vt 0.177417 0.470447
vt 0.506930 0.312404
vt 0.330975 0.338643
vt 0.337127 0.267894
vt 0.480507 0.243253
vt 0.166634 0.605944
vt 0.327924 0.595458
vt 0.301618 0.657902
vt 0.193468 0.666159
vt 0.039439 0.615246
vt 0.022821 0.477251
vt 0.214659 0.374894
vt 0.068425 0.332362
vt 0.536217 0.563477
vt 0.670852 0.534473
vt 0.660007 0.603368
vt 0.533289 0.625835
vt 0.747408 0.516308
vt 0.828030 0.527541
vt 0.810724 0.602764
vt 0.731862 0.589987
vt 0.228360 0.288091
vt 0.737036 0.421724
vt 0.744512 0.472763
vt 0.635074 0.318783
vt 0.703471 0.349824
vt 0.739118 0.217261
vt 0.601898 0.240979
vt 0.677775 0.159873
vt 0.842732 0.413840
vt 0.841603 0.483958
vt 0.815395 0.322353
vt 0.067404 0.647976
vt 0.453796 0.159264
vt 0.503366 0.031546
vt 0.563645 0.022821
vt 0.551402 0.118806
vt 0.895377 0.665823
vt 0.848387 0.798297
vt 0.836043 0.786747
vt 0.882463 0.663350
vt 0.098389 0.706196
vt 0.212245 0.073719
vt 0.246475 0.165745
vt 0.226676 0.193149
vt 0.206158 0.074604
vt 0.433909 0.137781
vt 0.477706 0.035263
vt 0.600681 0.772070
vt 0.682844 0.791838
vt 0.672216 0.818648
vt 0.608997 0.813572
vt 0.935776 0.827359
vt 0.945633 0.953345
vt 0.746500 0.953345
vt 0.771395 0.860561
vt 0.763503 0.830911
vt 0.685535 0.780694
vt 0.687751 0.769016
vt 0.764163 0.812506
vt 0.734178 0.872506
vt 0.707702 0.933811
vt 0.167859 0.113193
vt 0.170539 0.079760
vt 0.104572 0.089339
vt 0.114042 0.117314
vt 0.043569 0.169353
vt 0.023545 0.101117
vt 0.144343 0.117157
vt 0.106283 0.188479
vt 0.140949 0.100853
vt 0.870428 0.582665
vt 0.934768 0.553600
vt 0.957012 0.653298
vt 0.602582 0.751897
vt 0.495327 0.887504
vt 0.621508 0.902639
vt 0.614387 0.977179
vt 0.515127 0.969337
vt 0.411474 0.892399
vt 0.433128 0.977179
vt 0.614290 0.740121
vt 0.859880 0.593525
vt 0.252850 0.931345
vt 0.252850 0.821168
vt 0.326746 0.847794
vt 0.354713 0.933298
vt 0.124409 0.931345
vt 0.124409 0.820359
vt 0.023093 0.931345
vt 0.023093 0.839131
vt 0.122803 0.254561
s 0
usemtl Material.007
f 4/1/1 7/2/1 17/3/1 29/4/1
f 13/5/2 23/6/2 24/7/2 8/8/2
f 3/9/3 11/10/3 68/11/3 69/12/3
f 2/13/4 12/14/4 42/15/4 37/16/4
f 8/8/5 24/7/5 25/17/5 9/18/5
f 1/19/6 8/8/6 9/18/6 5/20/6
f 11/10/7 13/5/7 8/8/7 1/19/7
f 28/21/8 15/22/8 55/23/8 52/24/8
f 3/9/9 7/2/9 13/5/9 11/10/9
f 18/25/10 20/26/10 53/27/10 54/28/10
f 11/10/11 1/19/11 71/29/11 68/11/11
f 7/2/12 4/1/12 23/6/12 13/5/12
f 29/4/13 17/3/13 21/30/13 27/31/13
f 17/3/14 14/32/14 10/33/14 21/30/14
f 7/2/15 3/9/15 14/32/15 17/3/15
f 16/34/16 14/32/16 74/35/16 75/36/16
f 22/37/17 26/38/17 27/31/17 21/30/17
f 19/39/18 22/37/18 21/30/18 10/33/18
f 14/32/19 16/34/19 19/39/19 10/33/19
f 15/22/20 18/25/20 54/28/20 55/23/20
f 12/14/21 2/13/21 24/7/21 23/6/21
f 2/13/22 6/40/22 25/17/22 24/7/22
f 20/26/23 18/25/23 27/31/23 26/38/23
f 15/22/24 28/21/24 4/1/24 29/4/24
f 28/21/25 12/14/25 23/6/25 4/1/25
f 18/25/26 15/22/26 29/4/26 27/31/26
f 42/41/27 41/42/27 33/43/27 37/44/27
f 34/45/28 31/46/28 66/47/28 63/48/28
f 12/14/29 28/21/29 52/24/29 42/15/29
f 6/40/30 2/13/30 37/16/30 33/49/30
f 30/50/31 58/51/31 52/52/31 51/53/31
f 57/54/32 56/55/32 41/42/32 42/41/32
f 58/51/33 57/54/33 42/41/33 52/52/33
f 59/56/34 60/57/34 50/58/34 48/59/34
f 58/60/35 30/61/35 43/62/35 61/63/35
f 45/64/36 46/65/36 62/66/36 67/67/36
f 49/68/37 47/69/37 48/59/37 50/58/37
f 60/57/38 61/63/38 49/68/38 50/58/38
f 61/63/39 43/62/39 47/69/39 49/68/39
f 40/70/40 39/71/40 51/53/40 52/52/40
f 36/72/41 38/73/41 54/74/41 53/75/41
f 35/76/42 40/70/42 52/52/42 55/77/42
f 38/73/43 35/76/43 55/77/43 54/74/43
f 35/76/44 110/78/44 39/71/44 40/70/44
f 34/45/45 32/79/45 56/80/45 57/81/45
f 31/46/46 34/45/46 57/81/46 58/60/46
f 44/82/47 46/65/47 60/57/47 59/56/47
f 46/65/48 45/64/48 61/63/48 60/57/48
f 45/64/49 31/46/49 58/60/49 61/63/49
f 63/83/50 66/84/50 67/85/50 62/86/50
f 65/87/51 63/83/51 62/86/51 64/88/51
f 31/46/52 45/64/52 67/67/52 66/47/52
f 46/65/53 44/82/53 64/89/53 62/66/53
f 32/79/54 34/45/54 63/48/54 65/90/54
f 73/91/55 68/92/55 71/93/55 70/94/55
f 72/95/56 69/96/56 68/92/56 73/91/56
f 69/96/57 72/95/57 75/97/57 74/98/57
f 1/19/58 5/20/58 70/99/58 71/29/58
f 14/32/59 3/9/59 69/12/59 74/35/59
f 79/1/60 95/4/60 88/3/60 80/2/60
f 85/5/61 81/8/61 92/7/61 91/6/61
f 78/9/62 123/12/62 122/11/62 83/10/62
f 77/13/63 99/16/63 102/15/63 84/14/63
f 81/8/64 9/18/64 25/17/64 92/7/64
f 76/19/65 5/20/65 9/18/65 81/8/65
f 83/10/66 76/19/66 81/8/66 85/5/66
f 94/21/67 107/24/67 109/23/67 87/22/67
f 78/9/68 83/10/68 85/5/68 80/2/68
f 89/25/69 108/28/69 53/27/69 20/26/69
f 83/10/70 122/11/70 124/29/70 76/19/70
f 80/2/71 85/5/71 91/6/71 79/1/71
f 95/4/72 93/31/72 90/30/72 88/3/72
f 88/3/73 90/30/73 82/33/73 86/32/73
f 80/2/74 88/3/74 86/32/74 78/9/74
f 16/34/16 75/36/16 125/35/16 86/32/16
f 22/37/75 90/30/75 93/31/75 26/38/75
f 19/39/76 82/33/76 90/30/76 22/37/76
f 86/32/77 82/33/77 19/39/77 16/34/77
f 87/22/78 109/23/78 108/28/78 89/25/78
f 84/14/79 91/6/79 92/7/79 77/13/79
f 77/13/80 92/7/80 25/17/80 6/40/80
f 20/26/81 26/38/81 93/31/81 89/25/81
f 87/22/82 95/4/82 79/1/82 94/21/82
f 94/21/83 79/1/83 91/6/83 84/14/83
f 89/25/26 93/31/26 95/4/26 87/22/26
f 102/41/84 99/44/84 33/43/84 41/42/84
f 97/45/85 119/48/85 120/47/85 96/46/85
f 84/14/86 102/15/86 107/24/86 94/21/86
f 6/40/87 33/49/87 99/16/87 77/13/87
f 30/50/88 51/53/88 107/52/88 115/51/88
f 114/54/89 102/41/89 41/42/89 56/55/89
f 115/51/90 107/52/90 102/41/90 114/54/90
f 59/56/91 48/59/91 106/58/91 116/57/91
f 115/60/92 117/63/92 43/62/92 30/61/92
f 103/64/93 121/67/93 118/66/93 104/65/93
f 105/68/94 106/58/94 48/59/94 47/69/94
f 116/57/95 106/58/95 105/68/95 117/63/95
f 117/63/96 105/68/96 47/69/96 43/62/96
f 101/70/97 107/52/97 51/53/97 39/71/97
f 36/72/98 53/75/98 108/74/98 100/73/98
f 98/76/99 109/77/99 107/52/99 101/70/99
f 100/73/100 108/74/100 109/77/100 98/76/100
f 36/72/101 100/73/101 98/76/101 110/78/101
f 110/78/102 98/76/102 101/70/102 39/71/102
f 97/45/103 114/81/103 56/80/103 32/79/103
f 96/46/104 115/60/104 114/81/104 97/45/104
f 44/82/105 59/56/105 116/57/105 104/65/105
f 104/65/106 116/57/106 117/63/106 103/64/106
f 103/64/107 117/63/107 115/60/107 96/46/107
f 119/83/108 118/86/108 121/85/108 120/84/108
f 65/87/109 64/88/109 118/86/109 119/83/109
f 96/46/52 120/47/52 121/67/52 103/64/52
f 104/65/110 118/66/110 64/89/110 44/82/110
f 32/79/111 65/90/111 119/48/111 97/45/111
f 73/91/112 70/94/112 124/93/112 122/92/112
f 72/95/56 73/91/56 122/92/56 123/96/56
f 123/96/57 125/98/57 75/97/57 72/95/57
f 76/19/113 124/29/113 70/99/113 5/20/113
f 86/32/114 125/35/114 123/12/114 78/9/114
f 38/73/115 36/72/115 110/78/115 35/76/115
l 111 113
l 112 113
