# Blender 3.6.5
# www.blender.org
mtllib SAMP_FLOOR.mtl
o Plane.001
v 3.517325 0.000000 -6.382477
v 3.517325 0.000000 0.000000
v 0.000000 0.000000 -6.815974
v 4.637423 0.532020 -8.433995
v 4.637423 0.532020 0.000000
v 0.000000 0.532020 -9.003177
v 3.312471 0.000000 -3.191239
v 4.637423 0.532020 -4.216998
v 2.393161 -0.000000 -6.311618
v 2.953210 0.532020 -8.430979
v 0.879331 0.000000 -6.581262
v 1.159356 0.532020 -8.860881
v 7.354475 1.057746 -10.241606
v 7.354475 1.057746 0.000000
v 0.000000 1.057746 -11.000732
v 7.354475 1.057746 -4.617329
v 5.108213 1.057746 -10.237581
v 2.715722 1.057746 -10.810949
v 9.676189 0.000000 -12.783899
v 9.676189 0.000000 0.000000
v 0.000000 0.000000 -13.543026
v 9.676189 0.000000 -7.159624
v 7.429928 0.000000 -12.779877
v 5.037436 0.000000 -13.353244
v 3.026718 -0.540230 -5.678081
v 3.026718 -0.540230 0.000000
v 0.000000 -0.540230 -6.111578
v 2.821864 -0.540230 -2.486842
v 1.902553 -0.540230 -5.607222
v 0.388724 -0.540230 -5.876865
v -3.517325 0.000000 -6.382477
v -3.517325 0.000000 0.000000
v -4.637423 0.532020 -8.433995
v -4.637423 0.532020 0.000000
v -3.312471 0.000000 -3.191239
v -4.637423 0.532020 -4.216998
v -2.393161 -0.000000 -6.311618
v -2.953210 0.532020 -8.430979
v -0.879331 0.000000 -6.581262
v -1.159356 0.532020 -8.860881
v -7.354475 1.057746 -10.241606
v -7.354475 1.057746 0.000000
v -7.354475 1.057746 -4.617329
v -5.108213 1.057746 -10.237581
v -2.715722 1.057746 -10.810949
v -9.676189 0.000000 -12.783899
v -9.676189 0.000000 0.000000
v -9.676189 0.000000 -7.159624
v -7.429928 0.000000 -12.779877
v -5.037436 0.000000 -13.353244
v -3.026718 -0.540230 -5.678081
v -3.026718 -0.540230 0.000000
v -2.821864 -0.540230 -2.486842
v -1.902553 -0.540230 -5.607222
v -0.388724 -0.540230 -5.876865
v 3.517325 0.000000 6.382477
v 0.000000 0.000000 6.815974
v 4.637423 0.532020 8.433995
v 0.000000 0.532020 9.003177
v 3.312471 0.000000 3.191239
v 4.637423 0.532020 4.216998
v 2.393161 -0.000000 6.311618
v 2.953210 0.532020 8.430979
v 0.879331 0.000000 6.581262
v 1.159356 0.532020 8.860881
v 7.354475 1.057746 10.241606
v 0.000000 1.057746 11.000732
v 7.354475 1.057746 4.617329
v 5.108213 1.057746 10.237581
v 2.715722 1.057746 10.810949
v 9.676189 0.000000 12.783899
v 0.000000 0.000000 13.543026
v 9.676189 0.000000 7.159624
v 7.429928 0.000000 12.779877
v 5.037436 0.000000 13.353244
v 3.026718 -0.540230 5.678081
v 0.000000 -0.540230 6.111578
v 2.821864 -0.540230 2.486842
v 1.902553 -0.540230 5.607222
v 0.388724 -0.540230 5.876865
v -3.517325 0.000000 6.382477
v -4.637423 0.532020 8.433995
v -3.312471 0.000000 3.191239
v -4.637423 0.532020 4.216998
v -2.393161 -0.000000 6.311618
v -2.953210 0.532020 8.430979
v -0.879331 0.000000 6.581262
v -1.159356 0.532020 8.860881
v -7.354475 1.057746 10.241606
v -7.354475 1.057746 4.617329
v -5.108213 1.057746 10.237581
v -2.715722 1.057746 10.810949
v -9.676189 0.000000 12.783899
v -9.676189 0.000000 7.159624
v -7.429928 0.000000 12.779877
v -5.037436 0.000000 13.353244
v -3.026718 -0.540230 5.678081
v -2.821864 -0.540230 2.486842
v -1.902553 -0.540230 5.607222
v -0.388724 -0.540230 5.876865
vn 0.0066 0.9683 0.2497
vn -0.3952 0.9186 0.0109
vn -0.4110 0.9116 -0.0114
vn -0.0478 0.9729 0.2262
vn -0.0423 0.9725 0.2290
vn 0.0005 0.9600 0.2800
vn -0.0528 0.9740 0.2204
vn -0.0214 0.9682 0.2494
vn -0.1900 0.9818 -0.0000
vn 0.0772 0.9436 -0.3221
vn 0.4146 0.9100 -0.0000
vn -0.0007 0.9231 -0.3847
vn 0.0185 0.9261 -0.3769
vn -0.0999 0.8219 0.5608
vn -0.7706 0.6353 -0.0495
vn -0.7221 0.6898 0.0521
vn -0.2037 0.8098 0.5502
vn 0.0394 0.7794 0.6252
vn -0.0066 0.9683 0.2497
vn 0.3952 0.9186 0.0109
vn 0.4110 0.9116 -0.0114
vn 0.0478 0.9729 0.2262
vn 0.0423 0.9725 0.2290
vn -0.0005 0.9600 0.2800
vn 0.0528 0.9740 0.2204
vn 0.0214 0.9682 0.2494
vn 0.1900 0.9818 -0.0000
vn -0.0772 0.9436 -0.3221
vn -0.4146 0.9100 -0.0000
vn 0.0007 0.9231 -0.3847
vn -0.0185 0.9261 -0.3769
vn 0.0999 0.8219 0.5608
vn 0.7706 0.6353 -0.0495
vn 0.7221 0.6898 0.0521
vn 0.2037 0.8098 0.5502
vn -0.0394 0.7794 0.6252
vn 0.0066 0.9683 -0.2497
vn -0.3952 0.9186 -0.0109
vn -0.4110 0.9116 0.0114
vn -0.0478 0.9729 -0.2262
vn -0.0423 0.9725 -0.2290
vn 0.0005 0.9600 -0.2800
vn -0.0528 0.9740 -0.2204
vn -0.0214 0.9682 -0.2494
vn 0.0772 0.9436 0.3221
vn -0.0007 0.9231 0.3847
vn 0.0185 0.9261 0.3769
vn -0.0999 0.8219 -0.5608
vn -0.7706 0.6353 0.0495
vn -0.7221 0.6898 -0.0521
vn -0.2037 0.8098 -0.5502
vn 0.0394 0.7794 -0.6252
vn -0.0066 0.9683 -0.2497
vn 0.3952 0.9186 -0.0109
vn 0.4110 0.9116 0.0114
vn 0.0478 0.9729 -0.2262
vn 0.0423 0.9725 -0.2290
vn -0.0005 0.9600 -0.2800
vn 0.0528 0.9740 -0.2204
vn 0.0214 0.9682 -0.2494
vn -0.0772 0.9436 0.3221
vn 0.0007 0.9231 0.3847
vn -0.0185 0.9261 0.3769
vn 0.0999 0.8219 -0.5608
vn 0.7706 0.6353 0.0495
vn 0.7221 0.6898 -0.0521
vn 0.2037 0.8098 -0.5502
vn -0.0394 0.7794 -0.6252
vt 0.359300 0.754022
vt 0.359832 0.642414
vt 0.478007 0.533427
vt 0.475505 0.698460
vt 0.185517 0.645700
vt 0.018049 0.614884
vt 0.025871 0.504325
vt 0.249914 0.520036
vt 0.373931 0.900288
vt 0.498054 0.873155
vt 0.386016 0.985166
vt 0.505191 0.985255
vt 0.584694 0.272418
vt 0.579419 0.489339
vt 0.605994 0.722656
vt 0.614454 0.985625
vt 0.042357 0.242370
vt 0.286915 0.256898
vt 0.728835 0.267937
vt 0.753327 0.499012
vt 0.055536 0.013634
vt 0.434456 0.034916
vt 0.732502 0.051575
vt 0.759269 0.986366
vt 0.329014 0.948455
vt 0.314351 0.802458
vt 0.314845 0.693813
vt 0.143862 0.696634
vt 0.013634 0.668692
vt 0.340213 0.986366
s 0
usemtl Material.002
f 9/1/1 1/2/1 4/3/1 10/4/1
f 7/5/2 2/6/2 5/7/2 8/8/2
f 1/2/3 7/5/3 8/8/3 4/3/3
f 11/9/4 9/1/4 10/4/4 12/10/4
f 3/11/5 11/9/5 12/10/5 6/12/5
f 10/4/6 4/3/6 13/13/6 17/14/6
f 12/10/7 10/4/7 17/14/7 18/15/7
f 6/12/8 12/10/8 18/15/8 15/16/8
f 8/8/9 5/7/9 14/17/9 16/18/9
f 4/3/9 8/8/9 16/18/9 13/13/9
f 18/15/10 17/14/10 23/19/10 24/20/10
f 16/18/11 14/17/11 20/21/11 22/22/11
f 13/13/11 16/18/11 22/22/11 19/23/11
f 17/14/12 13/13/12 19/23/12 23/19/12
f 15/16/13 18/15/13 24/20/13 21/24/13
f 9/1/14 11/9/14 30/25/14 29/26/14
f 7/5/15 1/2/15 25/27/15 28/28/15
f 2/6/16 7/5/16 28/28/16 26/29/16
f 11/9/17 3/11/17 27/30/17 30/25/17
f 1/2/18 9/1/18 29/26/18 25/27/18
f 37/1/19 38/4/19 33/3/19 31/2/19
f 35/5/20 36/8/20 34/7/20 32/6/20
f 31/2/21 33/3/21 36/8/21 35/5/21
f 39/9/22 40/10/22 38/4/22 37/1/22
f 3/11/23 6/12/23 40/10/23 39/9/23
f 38/4/24 44/14/24 41/13/24 33/3/24
f 40/10/25 45/15/25 44/14/25 38/4/25
f 6/12/26 15/16/26 45/15/26 40/10/26
f 36/8/27 43/18/27 42/17/27 34/7/27
f 33/3/27 41/13/27 43/18/27 36/8/27
f 45/15/28 50/20/28 49/19/28 44/14/28
f 43/18/29 48/22/29 47/21/29 42/17/29
f 41/13/29 46/23/29 48/22/29 43/18/29
f 44/14/30 49/19/30 46/23/30 41/13/30
f 15/16/31 21/24/31 50/20/31 45/15/31
f 37/1/32 54/26/32 55/25/32 39/9/32
f 35/5/33 53/28/33 51/27/33 31/2/33
f 32/6/34 52/29/34 53/28/34 35/5/34
f 39/9/35 55/25/35 27/30/35 3/11/35
f 31/2/36 51/27/36 54/26/36 37/1/36
f 62/1/37 63/4/37 58/3/37 56/2/37
f 60/5/38 61/8/38 5/7/38 2/6/38
f 56/2/39 58/3/39 61/8/39 60/5/39
f 64/9/40 65/10/40 63/4/40 62/1/40
f 57/11/41 59/12/41 65/10/41 64/9/41
f 63/4/42 69/14/42 66/13/42 58/3/42
f 65/10/43 70/15/43 69/14/43 63/4/43
f 59/12/44 67/16/44 70/15/44 65/10/44
f 61/8/9 68/18/9 14/17/9 5/7/9
f 58/3/9 66/13/9 68/18/9 61/8/9
f 70/15/45 75/20/45 74/19/45 69/14/45
f 68/18/11 73/22/11 20/21/11 14/17/11
f 66/13/11 71/23/11 73/22/11 68/18/11
f 69/14/46 74/19/46 71/23/46 66/13/46
f 67/16/47 72/24/47 75/20/47 70/15/47
f 62/1/48 79/26/48 80/25/48 64/9/48
f 60/5/49 78/28/49 76/27/49 56/2/49
f 2/6/50 26/29/50 78/28/50 60/5/50
f 64/9/51 80/25/51 77/30/51 57/11/51
f 56/2/52 76/27/52 79/26/52 62/1/52
f 85/1/53 81/2/53 82/3/53 86/4/53
f 83/5/54 32/6/54 34/7/54 84/8/54
f 81/2/55 83/5/55 84/8/55 82/3/55
f 87/9/56 85/1/56 86/4/56 88/10/56
f 57/11/57 87/9/57 88/10/57 59/12/57
f 86/4/58 82/3/58 89/13/58 91/14/58
f 88/10/59 86/4/59 91/14/59 92/15/59
f 59/12/60 88/10/60 92/15/60 67/16/60
f 84/8/27 34/7/27 42/17/27 90/18/27
f 82/3/27 84/8/27 90/18/27 89/13/27
f 92/15/61 91/14/61 95/19/61 96/20/61
f 90/18/29 42/17/29 47/21/29 94/22/29
f 89/13/29 90/18/29 94/22/29 93/23/29
f 91/14/62 89/13/62 93/23/62 95/19/62
f 67/16/63 92/15/63 96/20/63 72/24/63
f 85/1/64 87/9/64 100/25/64 99/26/64
f 83/5/65 81/2/65 97/27/65 98/28/65
f 32/6/66 83/5/66 98/28/66 52/29/66
f 87/9/67 57/11/67 77/30/67 100/25/67
f 81/2/68 85/1/68 99/26/68 97/27/68
